PathFileType	4	(X/Y/Z)	Patient4_TMGait_0pt5_01_left_17.trc.trc
DataRate	CameraRate	NumFrames	NumMarkers	Units	OrigDataRate	OrigDataStartFrame	OrigNumFrames
74.468085106383	74.468085106383	6	33	mm	74.468085106383	106	       141
Frame#	Time	L.ASIS			Sacral			L.Shoulder			Chest			R.Shoulder			Neck			R.ASIS			R.Thigh.Superior			R.Thigh.Lateral			R.Thigh.Inferior			R.Patella			L.Thigh.Superior			L.Thigh.Lateral			L.Thigh.Inferior			L.Patella			L.Shank.Superior			L.Shank.Lateral			L.Shank.Inferior			R.Shank.Superior			R.Shank.Lateral			R.Shank.Inferior			R.Heel			R.Midfoot.Superior			R.Midfoot.Lateral			R.Toe			L.Heel			L.Midfoot.Lateral			L.Midfoot.Superior			L.Toe			L.Elbow			L.Wrist			R.Elbow			R.Wrist			
		X1	Y1	Z1	X2	Y2	Z2	X3	Y3	Z3	X4	Y4	Z4	X5	Y5	Z5	X6	Y6	Z6	X7	Y7	Z7	X8	Y8	Z8	X9	Y9	Z9	X10	Y10	Z10	X11	Y11	Z11	X12	Y12	Z12	X13	Y13	Z13	X14	Y14	Z14	X15	Y15	Z15	X16	Y16	Z16	X17	Y17	Z17	X18	Y18	Z18	X19	Y19	Z19	X20	Y20	Z20	X21	Y21	Z21	X22	Y22	Z22	X23	Y23	Z23	X24	Y24	Z24	X25	Y25	Z25	X26	Y26	Z26	X27	Y27	Z27	X28	Y28	Z28	X29	Y29	Z29	X30	Y30	Z30	X31	Y31	Z31	X32	Y32	Z32	X33	Y33	Z33	

106	24.100000000000	847.938790569299	968.811163301194	357.554319903262	650.620759907455	1010.240396875777	535.067594463725	798.993895114200	1440.251474369745	344.294108416496	921.858290589863	1369.189236199403	490.685835144013	859.900699380358	1441.634367661249	675.302792017324	818.505618745303	1500.208355867091	494.703175202239	887.109798954184	942.343103742258	629.064987687979	911.630014366241	737.425696562942	596.114863948308	826.022451070885	633.839480197862	659.633365802619	892.833275877718	576.846613056464	574.804910964870	886.531438764648	489.855085845726	579.212913500023	937.909899081475	791.388984522905	385.087888256403	895.131895893072	662.927825086834	310.206479057870	1000.046020717615	603.922181148759	369.673257591511	1021.682908425460	522.747269120713	362.482302929441	978.818891009261	448.034053648016	354.380554000582	863.954470203698	357.123631835218	306.796481480509	904.235114698831	232.265582122122	359.819286273043	857.105629334736	402.927973589915	586.509806507858	784.717011078298	300.358636029689	647.085480556946	822.304015643459	205.449546949039	581.518961643365	683.415812978706	43.350530240928	548.903764227426	854.595734711449	96.826940952073	586.702575023127	765.885555488211	36.531293539147	625.061051656801	974.337420266445	42.641071934410	616.503507613570	756.548661611139	96.610914069379	399.679958887868	825.192616730994	79.509520262772	317.563188807002	917.759790423764	128.805990609305	337.148529233428	1032.734780805371	58.913780720072	306.298273902744	727.421168114498	1085.158151387333	250.094265847140	753.861149172524	826.594189335271	243.178570298474	932.578191916548	1108.936464981020	800.717895388074	1172.174543571097	1038.331896612429	741.187944073086	
107	24.113428571429	846.361632144629	968.642150664624	357.772432013434	649.780376840683	1010.587196490590	536.010729712104	798.350094176751	1439.980235066382	344.419562078261	921.832096503138	1368.652126961648	490.125752062985	861.254344822489	1441.630450855248	674.984364318830	818.749097980367	1500.041343293687	494.646386831921	886.245084748779	941.981351761438	629.314918824431	908.819913806103	736.665502507818	596.390389879105	822.321501247327	633.711924394542	660.141119029702	888.310414513997	576.130662990843	575.296587723825	881.170451794341	489.416883873691	579.701072410352	935.254653867624	790.848447272051	384.991954023869	892.096153938165	662.640543196465	309.815746919361	996.515172459202	603.501907403891	370.033164756394	1019.555740152989	524.874684283173	362.870111647530	981.230709942933	450.038494968318	354.211539175592	873.714716467050	351.268517732666	305.728721256335	922.926514539519	229.280484858687	358.790898782864	851.514355497802	402.634719091529	586.871089897763	778.817914756539	300.279862465715	647.413567836079	816.025626524283	205.281371599599	581.723738264090	676.657570711997	43.391584661287	548.964428064606	847.844770415183	96.746617941247	586.771264251956	759.120812849016	36.522635530823	625.106602347920	967.578896495731	42.464523930850	616.582570895173	785.683176835425	82.683131652760	398.014556610358	855.790494653859	71.036577467065	316.048450729054	944.415723640217	126.965325307476	335.950485011421	1064.425425301599	65.868816444923	305.398239310816	720.537596099194	1086.077279211747	251.360777184201	738.521524871470	827.074485060853	246.002465453538	942.180036554645	1111.472498386626	799.677360424673	1184.224165779092	1056.852710235768	735.737993731732	
108	24.126857142857	844.884603307501	968.309236882020	357.832542644425	649.018176417114	1010.813432223244	536.800508708203	797.772483932363	1439.674340943882	344.403473357408	921.803575844456	1368.049598407150	489.464050385247	862.486148578970	1441.496054033501	674.528987177135	818.968841466427	1499.791137215931	494.471762443163	885.503939179646	941.575477559105	629.421904695892	906.199649478212	735.875641872292	596.613690627823	818.802678235165	633.534524763676	660.551692866713	884.006249704763	575.386059129203	575.732148922783	876.004351829702	488.937580553633	580.108606477547	932.322104565802	789.745363018273	384.880943076021	888.727036904070	661.983172860818	309.270114798592	992.452871268413	602.521347448365	370.513838364918	1016.824210983330	526.533911836628	363.408358309283	982.958670104809	451.914787189524	354.142964587987	883.283298330878	345.894212019319	304.509976690320	940.859294959591	227.347562057517	357.876436898175	846.063505031325	402.295116575615	587.155198458396	773.039627868661	300.189394908652	647.693275984187	809.819225396945	205.090535183873	581.890264917577	669.902118518123	43.434727631128	549.031932432060	841.094896998964	96.665413286391	586.820372062215	752.355991638005	36.515777602980	625.153266419670	960.819326853987	42.303126267383	616.656379899934	814.344756644420	70.879401341943	396.154202345722	885.866098688501	64.369383988565	314.651008320689	970.193507556283	126.478000855970	335.056454400787	1094.602585085221	74.058666815055	305.429119024302	713.755567402339	1087.157868490199	252.280152961235	724.254806016421	827.992493268061	248.727461538239	951.479635074049	1114.043854100742	798.321338488831	1194.820549849479	1075.345288237162	730.048862964832	
109	24.140285714286	843.495911495517	967.855727114687	357.729341343270	648.338187843181	1010.932721846488	537.448618226929	797.233145064709	1439.351561797716	344.241908357985	921.759727427147	1367.412596745868	488.691155786269	863.593659797393	1441.262331872504	673.930964208640	819.152784647745	1499.478073120742	494.170390775042	884.895101458109	941.137720428957	629.359872445742	903.757492909164	735.060410891986	596.742100361604	815.463596447347	633.316140952053	660.848765433696	879.889961916463	574.619212777352	576.074322529161	871.008381070411	488.423304138284	580.409203222375	929.223629399337	788.238684875167	384.771572295499	885.232330345561	661.086133717422	308.580788322414	988.123131483444	601.174019246035	371.057196817303	1013.733248574991	527.820658874071	364.045894888912	984.142116946016	453.697958001133	354.145818647033	892.501971501210	341.182136553711	303.231944583913	957.714232369970	226.490659417038	357.119069112800	840.729204628278	401.917533112279	587.347079478858	767.362391967775	300.093965945483	647.912747750057	803.673981869244	204.886110668315	582.012698424684	663.146696145449	43.479259869626	549.103846689615	834.347598941785	96.588649471543	586.851849874645	745.590527834529	36.511813019500	625.201426623797	954.056974622787	42.165101226583	616.723318724497	841.854408219401	61.401988926133	394.280583527642	914.719717588623	59.553926289635	313.495263934028	994.584145972882	127.263676822734	334.498953882319	1122.716558725495	83.139835229719	306.334045645679	707.154393048425	1088.379925657094	252.900192682174	711.088730695661	829.228275137122	251.333687870246	960.434622219100	1116.659363261987	796.663788176267	1203.959920795350	1093.658173610954	724.170016928093	
110	24.153714285714	842.190626069748	967.327802785749	357.460051123195	647.750573373820	1010.958491357387	537.964940488285	796.700938703927	1439.024740859092	343.932256406171	921.687862663555	1366.771258331248	487.796826516326	864.578287264666	1440.962455723162	673.184342625540	819.286218548969	1499.121140367684	493.733868902604	884.422824612032	940.679368514227	629.108644943008	901.475659834508	734.223321678737	596.734677357059	812.293217666427	633.066752166322	661.018468844769	875.922301124070	573.837584701039	576.288143610508	866.151517580901	487.880603761670	580.580474876218	926.103790906947	786.510721223805	384.666271030490	881.819822213890	660.072963686643	307.785109763612	983.804316313907	599.653531570516	371.593821652135	1010.533819621044	528.826245097722	364.720026832512	984.926834880876	455.395114914109	354.182998161241	901.171730404818	337.239790299513	302.005012108937	973.177977290121	226.616320115040	356.543408347072	835.484380432049	401.511904632886	587.435657401721	761.762165110096	300.001040758653	648.061383077751	797.575412827339	204.676445885088	582.086687507609	656.388974168352	43.524528898669	549.177874449754	827.604034636695	96.521444679084	586.869354473660	738.823700249898	36.511517357813	625.250398550360	947.290079722918	42.056062554341	616.782111184321	867.523141908962	54.270633910674	392.593149125030	941.617913595046	56.472768989328	312.683385837918	1017.079912288255	129.101416132999	334.267090384728	1148.247178206759	92.621933073397	307.930014168579	700.801175330343	1089.712299326814	253.271566545854	699.027195955237	830.671096290506	253.791594666812	969.001629416432	1119.328563868557	794.723748893548	1211.662504777296	1111.646327554280	718.149904549336	
111	24.167142857143	840.973340576831	966.766580486015	357.024091122829	647.271561086536	1010.901202176141	538.355534654163	796.143445445645	1438.699673548379	343.473362047413	921.576086109548	1366.151290047565	486.770870716490	865.443765252120	1440.626533506919	672.283683577639	819.352525350811	1498.735050734309	493.155139916030	884.087596746512	940.209830370379	628.656661154629	899.333443791445	733.366669269299	596.557533741765	809.274017825617	632.795839058346	661.051097338784	872.063335631081	573.048068055983	576.346358030420	861.403004907641	487.315053911952	580.606990942994	923.132656761451	784.748425803828	384.550935748430	878.677872376009	659.043148668398	306.945532639577	979.766247118295	598.132164846475	372.052475972252	1007.467875438823	529.625213898314	365.363556626105	985.453392230445	456.980926784461	354.219248689854	909.073623608601	334.094398518551	300.944319148843	986.958247540774	227.525787714044	356.160468557463	830.304535816290	401.087817927113	587.415322544026	756.215364716266	299.917607732363	648.131343347122	791.508013677180	204.467792406475	582.109648782455	649.627489349747	43.569571372460	549.252239218576	820.864635529474	96.467639061486	586.877122122888	732.054643177226	36.515086543105	625.298563611654	940.517048629719	41.978688611091	616.832081335807	890.691822229899	49.334480434530	391.286329277691	965.840105983790	54.868228372592	312.285969916901	1037.199826833497	131.655891562974	334.316913482139	1170.726137408777	101.913466150350	309.940548750690	694.748159080715	1091.113261322745	253.442577861414	688.058136041403	832.220070116003	256.063310683167	977.140478286376	1122.056588509086	792.524616566115	1217.973559865898	1129.171653536022	712.034393678665	
